/vscmnt/brussel_pixiu_data/_data_brussel/112/vsc11236/PredSimResults/SUBJ04mtu3D/worker10.mot
version=1
nRows=11
nColumns=50
inDegrees=yes
endheader
                time	         pelvis_tilt	         pelvis_list	     pelvis_rotation	           pelvis_tx	           pelvis_ty	           pelvis_tz	       hip_flexion_r	     hip_adduction_r	      hip_rotation_r	        knee_angle_r	       ankle_angle_r	         mtp_angle_r	       hip_flexion_l	     hip_adduction_l	      hip_rotation_l	        knee_angle_l	       ankle_angle_l	         mtp_angle_l	    lumbar_extension	      lumbar_bending	     lumbar_rotation	 ercspn_r/activation	 intobl_r/activation	 extobl_r/activation	    abd_r/activation	    add_r/activation	hamstrings_r/activation	bifemsh_r/activation	glut_max_r/activation	iliopsoas_r/activation	rect_fem_r/activation	  vasti_r/activation	gastroc_r/activation	 soleus_r/activation	tib_ant_r/activation	 ercspn_l/activation	 intobl_l/activation	 extobl_l/activation	    abd_l/activation	    add_l/activation	hamstrings_l/activation	bifemsh_l/activation	glut_max_l/activation	iliopsoas_l/activation	rect_fem_l/activation	  vasti_l/activation	gastroc_l/activation	 soleus_l/activation	tib_ant_l/activation	
          0.65778675	         -2.75084086	         -0.88407682	         -7.12367266	          0.61831954	          0.88062958	          0.01055096	        -12.00120672	         -0.16167617	         -9.08425918	         -8.63922157	         12.00529320	         22.44445436	         29.72917695	         -3.68886041	         -8.61796172	        -10.91344884	          4.83125572	          0.23752211	        -13.77165554	          3.74782545	          7.09384708	          0.03528182	          0.01000003	          0.01000004	          0.05067430	          0.01000054	          0.02652748	          0.17047966	          0.01612010	          0.01219266	          0.01000055	          0.01000010	          0.29855130	          0.23778679	          0.01000002	          0.03290327	          0.22307937	          0.01950748	          0.01138096	          0.29287217	          0.07051047	          0.05672922	          0.03190295	          0.14758739	          0.02509765	          0.01937532	          0.01000617	          0.01487291	          0.31876483	
          0.67094248	         -2.82506669	         -0.88214301	         -6.88849529	          0.63419059	          0.87841618	          0.00999039	        -12.70387538	         -0.27939797	         -9.73835325	         -9.21235273	         11.64462992	         23.86540269	         29.58844957	         -3.57535809	         -8.73616583	        -12.33921058	          4.58504804	          0.22496730	        -13.27263056	          3.13982368	          7.17111676	          0.03753725	          0.01000002	          0.01000017	          0.04156145	          0.01000094	          0.02175769	          0.13982214	          0.01322121	          0.01000050	          0.01000016	          0.01000021	          0.27527584	          0.22978893	          0.01000001	          0.02698626	          0.22743534	          0.01599942	          0.02581648	          0.24020459	          0.06853299	          0.04652788	          0.05526172	          0.12104647	          0.02058430	          0.01589107	          0.01219306	          0.01219938	          0.34899849	
          0.68409822	         -2.88517467	         -0.82047454	         -6.60645611	          0.65034060	          0.87645880	          0.00934352	        -13.30174232	         -0.47709259	        -10.42250372	        -10.02768605	         11.18988480	         25.31986824	         29.38961959	         -3.43053482	         -8.87941130	        -13.63583691	          4.10951419	          0.21788486	        -12.75183289	          2.44406498	          7.21976965	          0.04449175	          0.01000001	          0.01000005	          0.03408738	          0.01000025	          0.01784540	          0.11467777	          0.01084363	          0.01812473	          0.01000048	          0.01000008	          0.22577264	          0.21366869	          0.01000002	          0.02422277	          0.18653528	          0.01312222	          0.04761450	          0.22457751	          0.07092158	          0.03816093	          0.04661926	          0.09927846	          0.01688261	          0.07346153	          0.01000042	          0.01000557	          0.37899845	
          0.69725395	         -2.93197566	         -0.71773520	         -6.27715358	          0.66662027	          0.87494256	          0.00858732	        -13.73174757	         -0.74691254	        -11.13804710	        -11.17730259	         10.60201197	         26.79423073	         29.13978560	         -3.25175657	         -9.10926329	        -14.84400994	          3.61336747	          0.19499302	        -12.23280740	          1.68784606	          7.23652304	          0.05448786	          0.01000001	          0.01000005	          0.02795739	          0.01000027	          0.01463729	          0.09405511	          0.01000003	          0.01486551	          0.01000029	          0.01000009	          0.18517153	          0.19427498	          0.01000002	          0.02570370	          0.15299030	          0.01076244	          0.06856776	          0.20961048	          0.07063912	          0.03129865	          0.03826234	          0.08142504	          0.01384660	          0.13898929	          0.01000021	          0.01000010	          0.40888605	
          0.71040969	         -2.96605315	         -0.57150795	         -5.91329385	          0.68293201	          0.87401617	          0.00772429	        -13.94224347	         -1.10679032	        -11.87664053	        -12.73192162	          9.84133735	         28.27551745	         28.78023992	         -3.02448750	         -9.40465448	        -15.91247062	          3.31919019	          0.17114631	        -11.72767411	          0.87488304	          7.22101501	          0.07801803	          0.01000002	          0.01000005	          0.02292976	          0.01000041	          0.02265774	          0.07714104	          0.01000013	          0.01219233	          0.01000018	          0.01000034	          0.15187178	          0.15933822	          0.01000001	          0.02225319	          0.12547777	          0.01000005	          0.09963488	          0.18722051	          0.07169751	          0.02567054	          0.03853583	          0.06678222	          0.01135658	          0.18593530	          0.01000032	          0.01000017	          0.41605200	
          0.72356542	         -2.98908070	         -0.38103558	         -5.52985034	          0.69911475	          0.87382632	          0.00676263	        -13.87165161	         -1.57659931	        -12.62565562	        -14.76830164	          8.87026499	         29.72386790	         28.30373657	         -2.73193341	         -9.68919600	        -16.81411599	          3.24425927	          0.15097768	        -11.25401805	          0.01025770	          7.17811866	          0.09936714	          0.01000004	          0.01000005	          0.01880626	          0.01000067	          0.06476874	          0.06326867	          0.01000035	          0.01000028	          0.01000010	          0.01702323	          0.12456040	          0.13068413	          0.01000001	          0.01825265	          0.10291287	          0.01000011	          0.12324001	          0.17499560	          0.07094601	          0.02105451	          0.03614190	          0.05477265	          0.01000010	          0.21335238	          0.01000078	          0.01000102	          0.40916825	
          0.73672116	         -3.00203849	         -0.15756897	         -5.13843382	          0.71504553	          0.87442992	          0.00571815	        -13.49431143	         -2.15876337	        -13.36971076	        -17.30000262	          7.64367615	         31.07579035	         27.71954733	         -2.37447641	         -9.89750802	        -17.54410054	          3.35226615	          0.13829123	        -10.82530349	         -0.88840396	          7.11182287	          0.09853391	          0.01000353	          0.01000005	          0.01542430	          0.05318511	          0.09561908	          0.05189099	          0.01219293	          0.01000017	          0.01000007	          0.01396207	          0.10216047	          0.10718296	          0.01000001	          0.01497283	          0.08440586	          0.01000029	          0.13220562	          0.17945318	          0.07407755	          0.01726930	          0.02964260	          0.04492279	          0.01000009	          0.22082331	          0.01000025	          0.01000011	          0.38892785	
          0.74987689	         -3.00524122	          0.07225543	         -4.74832160	          0.73065000	          0.87576597	          0.00460948	        -12.78845326	         -2.84055896	        -14.10156622	        -20.34681152	          6.14791373	         32.22272926	         27.02905298	         -1.97872877	        -10.01715696	        -18.09091745	          3.60075998	          0.14109136	        -10.45088263	         -1.78706861	          7.02307412	          0.10145040	          0.03432592	          0.01000005	          0.01265052	          0.04362384	          0.08998236	          0.04255944	          0.01000031	          0.01000022	          0.01000004	          0.01145127	          0.08378876	          0.08790805	          0.01000009	          0.01812385	          0.06922699	          0.01000028	          0.13752227	          0.16924371	          0.07686136	          0.01416429	          0.02431242	          0.03684424	          0.01000009	          0.22954327	          0.01000078	          0.01000074	          0.35840561	
          0.76303263	         -2.99842849	          0.27378217	         -4.36746585	          0.74587415	          0.87772293	          0.00344241	        -11.73546623	         -3.60473776	        -14.81313325	        -23.94594586	          4.53866445	         32.73746183	         26.21732121	         -1.58028362	        -10.05084738	        -18.41323884	          3.92301009	          0.18328120	        -10.13856044	         -2.63901098	          6.90675746	          0.09469451	          0.04380168	          0.01000007	          0.01037556	          0.09640857	          0.07380286	          0.03490610	          0.01000006	          0.01000021	          0.01000004	          0.01000003	          0.06872087	          0.07209938	          0.03914672	          0.01486491	          0.05677778	          0.01000028	          0.13995586	          0.16643557	          0.08044327	          0.01161801	          0.02520278	          0.03021848	          0.01000007	          0.22591069	          0.01000038	          0.01000025	          0.32911495	
          0.77618836	         -2.98095127	          0.41437739	         -3.99747477	          0.76066652	          0.88014159	          0.00224197	        -10.32758657	         -4.43516271	        -15.50982510	        -28.15657255	          3.10971494	         32.00703431	         25.28945193	         -1.22191694	        -10.02366426	        -18.50590868	          4.24231306	          0.27701521	         -9.89456521	         -3.40454409	          6.75561063	          0.09060204	          0.03592516	          0.01000009	          0.01000001	          0.17701770	          0.06053128	          0.02863065	          0.01000003	          0.01000027	          0.01000003	          0.01000001	          0.05636267	          0.05913362	          0.09622397	          0.01219190	          0.04656733	          0.01000020	          0.14175995	          0.16168099	          0.08468680	          0.01000134	          0.03865345	          0.02478424	          0.01000007	          0.21475860	          0.01000028	          0.01000023	          0.30260837	
          0.78934410	         -2.95151513	          0.47126735	         -3.63330989	          0.77500019	          0.88282996	          0.00105351	         -8.61123992	         -5.30276155	        -16.18704065	        -32.87327939	          1.88954436	         29.93372260	         24.27646092	         -0.94083038	         -9.95871347	        -18.42283904	          4.54830175	          0.42248244	         -9.72016726	         -4.05997625	          6.56132768	          0.10066691	          0.02946564	          0.01250960	          0.01000001	          0.21068945	          0.04964608	          0.02656180	          0.01000002	          0.01000045	          0.01000004	          0.01000001	          0.04622687	          0.04849952	          0.15746767	          0.01000016	          0.03819304	          0.01000011	          0.14176534	          0.13260637	          0.08315061	          0.01000100	          0.05904527	          0.02032725	          0.01000007	          0.20571597	          0.01000016	          0.01000013	          0.27926161	
